<svg width="32" height="32" viewBox="0 0 32 32" fill="none" xmlns="http://www.w3.org/2000/svg">
<path d="M13 18L8 13L13 8" stroke="#2A2B2E" stroke-width="2" stroke-linecap="round" stroke-linejoin="round"/>
<path d="M8 13H18.5C19.2223 13 19.9375 13.1423 20.6048 13.4187C21.272 13.6951 21.8784 14.1002 22.3891 14.6109C22.8998 15.1216 23.3049 15.728 23.5813 16.3952C23.8577 17.0625 24 17.7777 24 18.5C24 19.2223 23.8577 19.9375 23.5813 20.6048C23.3049 21.272 22.8998 21.8784 22.3891 22.3891C21.8784 22.8998 21.272 23.3049 20.6048 23.5813C19.9375 23.8577 19.2223 24 18.5 24H15" stroke="#2A2B2E" stroke-width="2" stroke-linecap="round" stroke-linejoin="round"/>
</svg>
