<svg width="32" height="32" viewBox="0 0 32 32" fill="none" xmlns="http://www.w3.org/2000/svg">
<path d="M10.6663 29.3337C11.4027 29.3337 11.9997 28.7367 11.9997 28.0003C11.9997 27.2639 11.4027 26.667 10.6663 26.667C9.92996 26.667 9.33301 27.2639 9.33301 28.0003C9.33301 28.7367 9.92996 29.3337 10.6663 29.3337Z" stroke="#2A2B2E" stroke-width="2.4" stroke-linecap="round" stroke-linejoin="round"/>
<path d="M25.3333 29.3337C26.0697 29.3337 26.6667 28.7367 26.6667 28.0003C26.6667 27.2639 26.0697 26.667 25.3333 26.667C24.597 26.667 24 27.2639 24 28.0003C24 28.7367 24.597 29.3337 25.3333 29.3337Z" stroke="#2A2B2E" stroke-width="2.4" stroke-linecap="round" stroke-linejoin="round"/>
<path d="M2.7334 2.7334H5.40007L8.94673 19.2934C9.07684 19.8999 9.41429 20.442 9.90101 20.8265C10.3877 21.2111 10.9933 21.4139 11.6134 21.4001H24.6534C25.2603 21.3991 25.8487 21.1911 26.3214 20.8105C26.7942 20.4299 27.1229 19.8994 27.2534 19.3067L29.4534 9.40006H6.82673" stroke="#2A2B2E" stroke-width="2.4" stroke-linecap="round" stroke-linejoin="round"/>
</svg>
