<svg width="40" height="40" viewBox="0 0 40 40" fill="none" xmlns="http://www.w3.org/2000/svg">
<path d="M14.6663 33.3337C15.4027 33.3337 15.9997 32.7367 15.9997 32.0003C15.9997 31.2639 15.4027 30.667 14.6663 30.667C13.93 30.667 13.333 31.2639 13.333 32.0003C13.333 32.7367 13.93 33.3337 14.6663 33.3337Z" stroke="#2A2B2E" stroke-width="2.4" stroke-linecap="round" stroke-linejoin="round"/>
<path d="M29.3333 33.3337C30.0697 33.3337 30.6667 32.7367 30.6667 32.0003C30.6667 31.2639 30.0697 30.667 29.3333 30.667C28.597 30.667 28 31.2639 28 32.0003C28 32.7367 28.597 33.3337 29.3333 33.3337Z" stroke="#2A2B2E" stroke-width="2.4" stroke-linecap="round" stroke-linejoin="round"/>
<path d="M6.7334 6.7334H9.40007L12.9467 23.2934C13.0768 23.8999 13.4143 24.442 13.901 24.8265C14.3877 25.2111 14.9933 25.4139 15.6134 25.4001H28.6534C29.2603 25.3991 29.8487 25.1911 30.3214 24.8105C30.7942 24.4299 31.1229 23.8994 31.2534 23.3067L33.4534 13.4001H10.8267" stroke="#2A2B2E" stroke-width="2.4" stroke-linecap="round" stroke-linejoin="round"/>
</svg>
