<svg width="40" height="40" viewBox="0 0 40 40" fill="none" xmlns="http://www.w3.org/2000/svg">
<path d="M17.333 18.667V26.667" stroke="#2A2B2E" stroke-width="2.4" stroke-linecap="round" stroke-linejoin="round"/>
<path d="M22.667 18.667V26.667" stroke="#2A2B2E" stroke-width="2.4" stroke-linecap="round" stroke-linejoin="round"/>
<path d="M29.3337 12V30.6667C29.3337 31.3739 29.0527 32.0522 28.5526 32.5523C28.0525 33.0524 27.3742 33.3333 26.667 33.3333H13.3337C12.6264 33.3333 11.9481 33.0524 11.448 32.5523C10.9479 32.0522 10.667 31.3739 10.667 30.6667V12" stroke="#2A2B2E" stroke-width="2.4" stroke-linecap="round" stroke-linejoin="round"/>
<path d="M8 12H32" stroke="#2A2B2E" stroke-width="2.4" stroke-linecap="round" stroke-linejoin="round"/>
<path d="M14.667 12.0003V9.33366C14.667 8.62641 14.9479 7.94814 15.448 7.44804C15.9481 6.94794 16.6264 6.66699 17.3337 6.66699H22.667C23.3742 6.66699 24.0525 6.94794 24.5526 7.44804C25.0527 7.94814 25.3337 8.62641 25.3337 9.33366V12.0003" stroke="#2A2B2E" stroke-width="2.4" stroke-linecap="round" stroke-linejoin="round"/>
</svg>
