<svg width="110" height="60" viewBox="0 0 110 60" fill="none" xmlns="http://www.w3.org/2000/svg">
<path d="M110 55.4298C110 56.4295 109.749 57.2721 109.248 57.9576C108.756 58.6336 108.048 59.1429 107.121 59.4857C106.204 59.8284 105.108 59.9998 103.832 59.9998C102.745 59.9998 101.804 59.9141 101.01 59.7427C100.216 59.5714 99.5213 59.3286 98.9258 59.0144V56.8294C99.5591 57.1436 100.315 57.4292 101.194 57.6862C102.074 57.9433 102.972 58.0718 103.888 58.0718C105.231 58.0718 106.204 57.8529 106.809 57.4149C107.414 56.9769 107.717 56.3819 107.717 55.6298C107.717 55.2013 107.594 54.8252 107.348 54.5015C107.112 54.1683 106.71 53.8494 106.143 53.5447C105.576 53.2305 104.791 52.8878 103.789 52.5165C102.797 52.1356 101.936 51.7595 101.209 51.3882C100.49 51.0074 99.9325 50.5456 99.5355 50.003C99.1479 49.4603 98.9541 48.7557 98.9541 47.8893C98.9541 46.566 99.4835 45.552 100.542 44.8475C101.61 44.1334 103.009 43.7764 104.739 43.7764C105.675 43.7764 106.549 43.8716 107.362 44.062C108.185 44.2429 108.95 44.4904 109.659 44.8046L108.865 46.704C108.222 46.4279 107.537 46.1946 106.809 46.0042C106.081 45.8138 105.339 45.7186 104.583 45.7186C103.496 45.7186 102.66 45.8995 102.074 46.2613C101.497 46.6231 101.209 47.1182 101.209 47.7465C101.209 48.2321 101.341 48.632 101.606 48.9462C101.88 49.2603 102.315 49.5555 102.91 49.8316C103.506 50.1077 104.29 50.4314 105.264 50.8027C106.237 51.1645 107.079 51.5406 107.788 51.9309C108.497 52.3118 109.04 52.7783 109.418 53.3305C109.806 53.8732 110 54.5729 110 55.4298Z" fill="#2A2B2E"/>
<path d="M95.126 43.7764C95.438 43.7764 95.7641 43.7954 96.1044 43.8335C96.4447 43.8621 96.7472 43.9049 97.0118 43.962L96.7141 46.1613C96.4589 46.0947 96.1753 46.0423 95.8633 46.0042C95.5514 45.9661 95.2584 45.9471 94.9843 45.9471C94.3604 45.9471 93.7696 46.0756 93.2119 46.3327C92.6636 46.5802 92.1816 46.942 91.7656 47.4181C91.3497 47.8846 91.0236 48.4511 90.7873 49.1175C90.551 49.7745 90.4328 50.5076 90.4328 51.3168V59.7142H88.0649V44.062H90.0216L90.2769 46.9468H90.3761C90.6975 46.366 91.0851 45.8376 91.5388 45.3616C91.9925 44.876 92.5171 44.4904 93.1126 44.2048C93.7176 43.9192 94.3887 43.7764 95.126 43.7764Z" fill="#2A2B2E"/>
<path d="M77.743 43.7764C79.0663 43.7764 80.2006 44.0715 81.1459 44.6618C82.0912 45.2521 82.8143 46.0804 83.3153 47.1467C83.8163 48.2035 84.0667 49.4412 84.0667 50.8598V52.3308H73.3333C73.3617 54.1683 73.8154 55.5679 74.6945 56.5295C75.5736 57.4911 76.8119 57.9719 78.4094 57.9719C79.3924 57.9719 80.2621 57.8814 81.0183 57.7005C81.7745 57.5196 82.5591 57.253 83.372 56.9008V58.9858C82.5874 59.3381 81.8076 59.5952 81.0325 59.757C80.2668 59.9189 79.3593 59.9998 78.3101 59.9998C76.8166 59.9998 75.5121 59.6951 74.3967 59.0858C73.2908 58.4669 72.4306 57.5625 71.8162 56.3724C71.2017 55.1823 70.8945 53.7256 70.8945 52.0023C70.8945 50.3171 71.1734 48.8605 71.7311 47.6323C72.2982 46.3946 73.0923 45.4425 74.1131 44.7761C75.1435 44.1096 76.3534 43.7764 77.743 43.7764ZM77.7146 45.7186C76.4574 45.7186 75.4554 46.1328 74.7087 46.9611C73.9619 47.7894 73.5176 48.9462 73.3758 50.4314H81.5996C81.5902 49.4984 81.4436 48.6796 81.1601 47.975C80.8859 47.261 80.4653 46.7088 79.8981 46.3184C79.331 45.9185 78.6031 45.7186 77.7146 45.7186Z" fill="#2A2B2E"/>
<path d="M61.8907 59.6854L59.1258 50.574C59.0029 50.1836 58.8847 49.8028 58.7713 49.4315C58.6673 49.0507 58.5681 48.6889 58.4735 48.3461C58.3885 47.9939 58.3081 47.6701 58.2325 47.375C58.1663 47.0703 58.1096 46.8085 58.0624 46.5895H57.9631C57.9253 46.8085 57.8733 47.0703 57.8071 47.375C57.741 47.6701 57.6606 47.9939 57.5661 48.3461C57.481 48.6984 57.3865 49.0697 57.2825 49.4601C57.1785 49.8409 57.0604 50.2265 56.928 50.6168L54.0355 59.6854H51.3841L47.1021 44.0332H49.5408L51.7811 52.6733C51.9323 53.2446 52.0741 53.8111 52.2065 54.3728C52.3483 54.925 52.4664 55.4486 52.5609 55.9437C52.6649 56.4293 52.7405 56.8529 52.7878 57.2147H52.9012C52.9579 56.9767 53.0194 56.6911 53.0856 56.3579C53.1612 56.0246 53.2415 55.6724 53.3266 55.3011C53.4211 54.9202 53.5204 54.5442 53.6244 54.1728C53.7283 53.792 53.8323 53.435 53.9363 53.1018L56.8004 44.0332H59.3385L62.1033 53.0875C62.2451 53.5445 62.3822 54.0205 62.5145 54.5156C62.6563 55.0107 62.7839 55.4915 62.8974 55.958C63.0108 56.415 63.0911 56.8244 63.1384 57.1862H63.2518C63.2897 56.8625 63.3605 56.4626 63.4645 55.9866C63.5685 55.5105 63.6867 54.9869 63.819 54.4156C63.9608 53.8444 64.1073 53.2636 64.2585 52.6733L66.5272 44.0332H68.9234L64.6272 59.6854H61.8907Z" fill="#2A2B2E"/>
<path d="M23.9154 22.393C21.8718 22.393 20.21 20.7191 20.21 18.6609C20.21 16.6026 21.8718 14.9287 23.9154 14.9287C25.9589 14.9287 27.6208 16.6026 27.6208 18.6609C27.6208 20.7191 25.9589 22.393 23.9154 22.393ZM23.9154 16.7948C22.8936 16.7948 22.0627 17.6317 22.0627 18.6609C22.0627 19.69 22.8936 20.5269 23.9154 20.5269C24.9372 20.5269 25.7681 19.69 25.7681 18.6609C25.7681 17.6317 24.9372 16.7948 23.9154 16.7948Z" fill="#2A2B2E"/>
<path d="M23.9143 37.3215C21.3362 37.3215 21.1352 29.8227 21.1352 27.5246C21.1352 26.7866 21.1537 26.0691 21.188 25.3842C21.213 24.8682 21.6428 24.4624 22.1598 24.4988C22.6711 24.5249 23.0648 24.9634 23.0389 25.4775C23.0064 26.1334 22.9879 26.8192 22.9879 27.5246C22.9879 31.4004 23.503 33.985 23.9143 35.043C24.3256 33.985 24.8406 31.4014 24.8406 27.5246C24.8406 25.1976 24.6424 22.9443 24.2959 21.3432C24.1875 20.8394 24.5053 20.343 25.0046 20.2329C25.5095 20.1238 25.9976 20.4429 26.107 20.9467C26.4849 22.6989 26.6933 25.0353 26.6933 27.5255C26.6933 29.8227 26.4923 37.3215 23.9143 37.3215ZM22.6266 17.11C22.2005 17.11 21.817 16.8124 21.7225 16.3757C21.3436 14.6263 21.1343 12.289 21.1343 9.79689C21.1343 7.49882 21.3353 0 23.9133 0C26.4914 0 26.6924 7.49882 26.6924 9.79689C26.6924 10.5349 26.6739 11.2524 26.6396 11.9373C26.6137 12.4523 26.1625 12.8517 25.6679 12.8227C25.1565 12.7966 24.7628 12.3581 24.7888 11.844C24.8212 11.1881 24.8397 10.5023 24.8397 9.79689C24.8397 5.92106 24.3246 3.33654 23.9133 2.27848C23.502 3.33654 22.987 5.92012 22.987 9.79689C22.987 12.1248 23.1862 14.3781 23.5317 15.9783C23.641 16.4812 23.3242 16.9785 22.824 17.0876C22.7591 17.1035 22.6924 17.11 22.6266 17.11Z" fill="#2A2B2E"/>
<path d="M32.497 35.0068C31.4818 35.0068 30.3914 33.9357 29.6013 33.0483C28.4257 31.729 27.114 29.8424 25.9079 27.7384C25.542 27.1012 25.2029 26.4723 24.8935 25.8621C24.6601 25.403 24.8398 24.8404 25.2956 24.6062C25.7522 24.3683 26.309 24.5512 26.5424 25.0112C26.8389 25.5934 27.164 26.1961 27.5132 26.8054C29.4373 30.1634 31.1659 32.1424 32.0487 32.8505C31.8801 31.7281 31.0436 29.2304 29.1186 25.8724C27.9662 23.8589 26.6749 22.0068 25.579 20.7929C25.2353 20.4113 25.2631 19.8216 25.6411 19.4745C26.019 19.1293 26.6063 19.1554 26.95 19.537C28.1487 20.8666 29.4892 22.784 30.7231 24.9393C31.8634 26.9295 35.4132 33.5233 33.1788 34.823C32.9584 34.9499 32.7296 35.0068 32.497 35.0068ZM21.5679 18.0908C21.3169 18.0908 21.0658 17.9891 20.8833 17.7867C19.6902 16.4683 18.3497 14.5499 17.1075 12.3853C15.3715 9.35666 13.5105 5.19158 13.982 3.42441C14.1209 2.90098 14.4238 2.63319 14.6526 2.5007C15.8319 1.81772 17.2585 3.18462 18.2284 4.27534C19.4039 5.59465 20.7156 7.48126 21.9218 9.58526C22.2877 10.2235 22.6267 10.8505 22.9371 11.4625C23.1696 11.9216 22.9889 12.4842 22.5332 12.7184C22.0802 12.9526 21.5188 12.7706 21.2863 12.3116C20.9908 11.7275 20.6656 11.1266 20.3164 10.5183C18.3923 7.16029 16.6638 5.18132 15.7809 4.47314C15.9495 5.59652 16.787 8.09426 18.711 11.4513C19.8708 13.4732 21.1622 15.3244 22.2515 16.528C22.5962 16.9087 22.5693 17.4993 22.1913 17.8464C22.0144 18.0106 21.7911 18.0908 21.5679 18.0908Z" fill="#2A2B2E"/>
<path d="M38.3469 28.7201C35.8911 28.7201 31.6651 26.4015 30.1449 25.517C29.5122 25.1494 28.9064 24.7752 28.3348 24.4029C27.905 24.1221 27.7818 23.5445 28.0597 23.1125C28.3376 22.6796 28.911 22.5565 29.3409 22.8354C29.8874 23.1919 30.4664 23.5501 31.0704 23.901C34.4053 25.8389 36.8842 26.6823 37.9995 26.8522C37.2964 25.9639 35.3316 24.2229 31.9986 22.2859C29.9995 21.1224 27.9634 20.1669 26.4108 19.6668C25.9235 19.5101 25.6549 18.9857 25.8114 18.494C25.9671 18.0042 26.4858 17.7336 26.9759 17.8903C28.673 18.4371 30.786 19.4252 32.9259 20.6699C35.9328 22.4174 39.6104 25.085 40.081 26.855C40.2191 27.3784 40.0912 27.7619 39.9588 27.9923C39.6614 28.5111 39.0843 28.7201 38.3469 28.7201ZM21.1352 19.4737C21.0426 19.4737 20.9481 19.4597 20.8545 19.4298C19.1704 18.8915 17.0565 17.9053 14.9027 16.6531C11.8948 14.9037 8.21531 12.2343 7.7475 10.468C7.60947 9.94365 7.73731 9.56018 7.86978 9.32972C8.00039 9.10205 8.26626 8.79789 8.78594 8.65606C10.5451 8.17648 14.6757 10.0556 17.6827 11.8032C18.3181 12.1727 18.9268 12.5487 19.5002 12.9238C19.93 13.2037 20.0523 13.7822 19.7735 14.2142C19.4946 14.6462 18.9212 14.7712 18.4923 14.4894C17.9439 14.1321 17.364 13.7719 16.7572 13.4202C13.4214 11.4813 10.9416 10.6378 9.82717 10.4699C10.5303 11.3572 12.496 13.0973 15.829 15.0371C17.8411 16.2062 19.8772 17.1588 21.415 17.6515C21.9022 17.8073 22.1718 18.3317 22.0171 18.8234C21.893 19.2208 21.5289 19.4737 21.1352 19.4737Z" fill="#2A2B2E"/>
<path d="M32.7148 21.4614C31.9839 21.4614 31.2715 21.4428 30.5906 21.4073C30.0793 21.3802 29.6865 20.9417 29.7134 20.4267C29.7402 19.9116 30.1858 19.5067 30.687 19.5431C31.3373 19.5767 32.0172 19.5953 32.7148 19.5953C36.5638 19.5953 39.1316 19.0756 40.1812 18.6604C39.1307 18.2462 36.5647 17.7274 32.7166 17.7274C30.4072 17.7274 28.1691 17.9271 26.5767 18.2751C26.0793 18.3843 25.5837 18.0642 25.4753 17.5604C25.3669 17.0565 25.6847 16.5602 26.1849 16.451C27.9246 16.0713 30.2442 15.8613 32.7166 15.8613C36.1895 15.8613 40.699 16.3204 41.983 17.6154C42.3628 17.9989 42.4424 18.3964 42.4415 18.6623C42.4415 21.2589 34.9964 21.4614 32.7148 21.4614ZM15.0992 21.4596C11.6291 21.4596 7.12881 21.0014 5.84674 19.7073C5.46693 19.3238 5.38727 18.9264 5.38819 18.6604C5.38727 17.2907 7.27796 16.7309 8.70084 16.4286C10.4248 16.0629 12.7018 15.8613 15.114 15.8613C15.8468 15.8613 16.56 15.88 17.2418 15.9154C17.7532 15.9416 18.146 16.381 18.1191 16.8961C18.0913 17.4111 17.6559 17.8095 17.1455 17.7797C16.4943 17.7461 15.8143 17.7274 15.114 17.7274C11.265 17.7274 8.69806 18.2471 7.6485 18.6614C8.69714 19.0756 11.2585 19.5935 15.0973 19.5935C15.1029 19.5935 15.1075 19.5935 15.114 19.5935C17.4345 19.5935 19.6707 19.3929 21.2502 19.0449C21.7486 18.9357 22.2432 19.2529 22.3526 19.7568C22.4619 20.2597 22.146 20.757 21.6457 20.8671C19.9181 21.2487 17.5976 21.4596 15.114 21.4596C15.1094 21.4596 15.1038 21.4596 15.0992 21.4596Z" fill="#2A2B2E"/>
<path d="M30.6384 17.781C30.3021 17.781 29.9761 17.5954 29.8121 17.2725C29.5796 16.8144 29.7593 16.2518 30.216 16.0167C30.7968 15.7181 31.3943 15.3897 32.0011 15.0379C35.3341 13.1 37.2989 11.358 38.002 10.4697C36.8867 10.6396 34.4068 11.483 31.0738 13.4209C29.0757 14.5816 27.2368 15.8814 26.0289 16.9861C25.6518 17.3322 25.0655 17.3052 24.7208 16.9226C24.3772 16.542 24.405 15.9513 24.7838 15.6052C26.1048 14.3969 28.0094 13.0468 30.1474 11.8049C33.1553 10.0545 37.2896 8.17821 39.0442 8.65686C39.5639 8.79775 39.8297 9.10285 39.9603 9.33331C40.6403 10.5192 39.2813 11.957 38.1993 12.9339C36.8885 14.1198 35.0154 15.441 32.9274 16.6558C32.2929 17.0234 31.6685 17.3658 31.0599 17.6793C30.9237 17.7474 30.7801 17.781 30.6384 17.781ZM9.46376 28.7433C8.78197 28.7433 8.1891 28.5511 7.8695 27.9931C7.18771 26.8063 8.5476 25.3685 9.62958 24.3907C10.9404 23.2048 12.8135 21.8836 14.9015 20.6688C15.536 20.2993 16.1613 19.9569 16.7681 19.6443C17.2248 19.4073 17.7815 19.5902 18.015 20.0492C18.2484 20.5083 18.0687 21.0709 17.6129 21.3051C17.0321 21.6046 16.4355 21.933 15.8278 22.2857C12.4948 24.2246 10.53 25.9656 9.8269 26.8539C10.9422 26.6841 13.423 25.8406 16.7542 23.9018C18.7625 22.7345 20.5995 21.4348 21.7954 20.3366C22.1724 19.9886 22.7588 20.0157 23.1034 20.3963C23.449 20.7761 23.4221 21.3667 23.0441 21.7138C21.7352 22.9174 19.8306 24.2675 17.6805 25.5178C15.5935 26.7326 13.5212 27.7057 11.8454 28.2581C11.1155 28.4988 10.2326 28.7433 9.46376 28.7433Z" fill="#2A2B2E"/>
<path d="M24.0319 16.7948C23.9383 16.7948 23.8438 16.7808 23.7493 16.75C23.2621 16.5932 22.9934 16.0688 23.15 15.5771C23.6928 13.8669 24.6729 11.7386 25.9087 9.58331C27.6447 6.55467 30.294 2.84958 32.0504 2.37653C32.5664 2.23751 32.9508 2.36533 33.1796 2.49969C35.414 3.79941 31.8651 10.3941 30.7248 12.3843C30.3589 13.0225 29.9865 13.6336 29.6159 14.2093C29.3371 14.6432 28.7637 14.7654 28.3348 14.4846C27.905 14.2037 27.7827 13.6262 28.0615 13.1942C28.4163 12.6437 28.7711 12.0596 29.1203 11.4512C31.0453 8.09325 31.8818 5.59551 32.0495 4.47213C31.1676 5.18031 29.4381 7.16021 27.514 10.5173C26.3589 12.5308 25.4112 14.5825 24.9147 16.1463C24.7878 16.5419 24.4246 16.7948 24.0319 16.7948ZM15.3426 35.0048C15.0425 35.0048 14.81 34.9143 14.6516 34.822C14.4246 34.6904 14.1226 34.4226 13.9828 33.9001C13.5103 32.1311 15.3704 27.9669 17.1064 24.9383C17.4733 24.2992 17.8457 23.688 18.2162 23.1105C18.495 22.6776 19.0675 22.5544 19.4973 22.8334C19.9272 23.1133 20.0504 23.6908 19.7725 24.1238C19.4177 24.6761 19.061 25.2602 18.7109 25.8713C16.7859 29.2293 15.9494 31.728 15.7817 32.8505C16.6636 32.1423 18.3922 30.1633 20.3153 26.8053C21.4927 24.7508 22.4154 22.7513 22.9119 21.1782C23.0675 20.6883 23.5872 20.414 24.0754 20.5717C24.5627 20.7275 24.8322 21.2519 24.6775 21.7436C24.1421 23.4417 23.162 25.5718 21.9198 27.7393C20.1856 30.767 17.5381 34.4721 15.7808 34.9461C15.6224 34.9871 15.476 35.0048 15.3426 35.0048ZM23.9142 59.7145C23.4019 59.7145 22.9879 59.2974 22.9879 58.7814V36.3885C22.9879 35.8726 23.4019 35.4555 23.9142 35.4555C24.4265 35.4555 24.8406 35.8726 24.8406 36.3885V58.7814C24.8406 59.2974 24.4265 59.7145 23.9142 59.7145Z" fill="#2A2B2E"/>
<path d="M23.9137 57.9066C23.4014 57.9066 22.9873 57.4895 22.9873 56.9736C22.9873 46.169 31.7145 37.3779 42.4417 37.3779C42.954 37.3779 43.3681 37.795 43.3681 38.311C43.3681 38.8269 42.954 39.244 42.4417 39.244C32.7354 39.244 24.84 47.1972 24.84 56.9736C24.84 57.4886 24.4259 57.9066 23.9137 57.9066Z" fill="#2A2B2E"/>
<path d="M23.9137 57.9066C23.4014 57.9066 22.9873 57.4895 22.9873 56.9736C22.9873 56.4576 23.4014 56.0405 23.9137 56.0405C33.62 56.0405 41.5154 48.0873 41.5154 38.311C41.5154 37.795 41.9294 37.3779 42.4417 37.3779C42.954 37.3779 43.3681 37.795 43.3681 38.311C43.3681 49.1155 34.6409 57.9066 23.9137 57.9066Z" fill="#2A2B2E"/>
<path d="M8.97526 45.9189H5.10441V59.7146H2.75071V45.9189H0V44.7764L2.75071 43.991V42.9484C2.75071 41.6346 2.94449 40.5682 3.33205 39.7495C3.7196 38.9211 4.28203 38.3118 5.01934 37.9215C5.75664 37.5311 6.65464 37.3359 7.71333 37.3359C8.30885 37.3359 8.85237 37.3883 9.34391 37.493C9.8449 37.5978 10.2844 37.7168 10.6625 37.8501L10.0529 39.7209C9.73147 39.6162 9.36754 39.521 8.96108 39.4353C8.56407 39.3401 8.15761 39.2925 7.74169 39.2925C6.84369 39.2925 6.17728 39.5876 5.74246 40.1779C5.31709 40.7587 5.10441 41.6727 5.10441 42.9199V44.0624H8.97526V45.9189Z" fill="#2A2B2E"/>
</svg>
